<mxfile host="app.diagrams.net" modified="2021-05-24T04:13:28.716Z" agent="5.0 (Windows NT 10.0; WOW64) AppleWebKit/537.36 (KHTML, like Gecko) SFive/73.0 Chrome/73.0.3683.104 Safari/537.36" etag="edIi4EphMV9UoEAVnOn0" version="13.7.5" type="github">
  <diagram id="C5RBs43oDa-KdzZeNtuy" name="Page-1">
    <mxGraphModel dx="1422" dy="905" grid="1" gridSize="10" guides="1" tooltips="1" connect="1" arrows="1" fold="1" page="1" pageScale="1" pageWidth="827" pageHeight="1169" math="0" shadow="0">
      <root>
        <mxCell id="WIyWlLk6GJQsqaUBKTNV-0" />
        <mxCell id="WIyWlLk6GJQsqaUBKTNV-1" parent="WIyWlLk6GJQsqaUBKTNV-0" />
        <mxCell id="jbT7SXT4_afKjvwqRheY-0" value="Event Manager" style="rounded=1;whiteSpace=wrap;html=1;" vertex="1" parent="WIyWlLk6GJQsqaUBKTNV-1">
          <mxGeometry x="130" y="10" width="550" height="60" as="geometry" />
        </mxCell>
        <mxCell id="jbT7SXT4_afKjvwqRheY-3" value="ConcurrentQueueEventListener&lt;br&gt;[ Roundrobin enqueue ]" style="rounded=1;whiteSpace=wrap;html=1;" vertex="1" parent="WIyWlLk6GJQsqaUBKTNV-1">
          <mxGeometry x="300" y="240" width="205" height="60" as="geometry" />
        </mxCell>
        <mxCell id="jbT7SXT4_afKjvwqRheY-4" value="SingleQueueEventListener&lt;br&gt;(implement EventListener)" style="rounded=1;whiteSpace=wrap;html=1;" vertex="1" parent="WIyWlLk6GJQsqaUBKTNV-1">
          <mxGeometry x="10" y="360" width="200" height="60" as="geometry" />
        </mxCell>
        <mxCell id="jbT7SXT4_afKjvwqRheY-5" value="ConcurrentQueueEventListener" style="rounded=1;whiteSpace=wrap;html=1;" vertex="1" parent="WIyWlLk6GJQsqaUBKTNV-1">
          <mxGeometry x="570" y="240" width="205" height="60" as="geometry" />
        </mxCell>
        <mxCell id="jbT7SXT4_afKjvwqRheY-6" value="ConcurrentQueueEventListener" style="rounded=1;whiteSpace=wrap;html=1;" vertex="1" parent="WIyWlLk6GJQsqaUBKTNV-1">
          <mxGeometry x="10" y="240" width="205" height="60" as="geometry" />
        </mxCell>
        <mxCell id="jbT7SXT4_afKjvwqRheY-7" value="EventListener" style="rounded=1;whiteSpace=wrap;html=1;" vertex="1" parent="WIyWlLk6GJQsqaUBKTNV-1">
          <mxGeometry x="10" y="120" width="205" height="60" as="geometry" />
        </mxCell>
        <mxCell id="jbT7SXT4_afKjvwqRheY-8" value="EventListener" style="rounded=1;whiteSpace=wrap;html=1;" vertex="1" parent="WIyWlLk6GJQsqaUBKTNV-1">
          <mxGeometry x="300" y="120" width="205" height="60" as="geometry" />
        </mxCell>
        <mxCell id="jbT7SXT4_afKjvwqRheY-9" value="EventListener" style="rounded=1;whiteSpace=wrap;html=1;" vertex="1" parent="WIyWlLk6GJQsqaUBKTNV-1">
          <mxGeometry x="570" y="120" width="205" height="60" as="geometry" />
        </mxCell>
        <mxCell id="jbT7SXT4_afKjvwqRheY-10" value="SingleQueueEventListener&lt;br&gt;(implement EventListener)" style="rounded=1;whiteSpace=wrap;html=1;" vertex="1" parent="WIyWlLk6GJQsqaUBKTNV-1">
          <mxGeometry x="300" y="360" width="200" height="60" as="geometry" />
        </mxCell>
        <mxCell id="jbT7SXT4_afKjvwqRheY-11" value="SingleQueueEventListener&lt;br&gt;(implement EventListener)" style="rounded=1;whiteSpace=wrap;html=1;" vertex="1" parent="WIyWlLk6GJQsqaUBKTNV-1">
          <mxGeometry x="570" y="360" width="200" height="60" as="geometry" />
        </mxCell>
        <mxCell id="jbT7SXT4_afKjvwqRheY-12" value="" style="endArrow=classic;html=1;entryX=0.5;entryY=1;entryDx=0;entryDy=0;exitX=0.5;exitY=0;exitDx=0;exitDy=0;" edge="1" parent="WIyWlLk6GJQsqaUBKTNV-1" source="jbT7SXT4_afKjvwqRheY-6" target="jbT7SXT4_afKjvwqRheY-7">
          <mxGeometry width="50" height="50" relative="1" as="geometry">
            <mxPoint x="100" y="240" as="sourcePoint" />
            <mxPoint x="150" y="190" as="targetPoint" />
          </mxGeometry>
        </mxCell>
        <mxCell id="jbT7SXT4_afKjvwqRheY-13" value="" style="endArrow=classic;html=1;entryX=0.5;entryY=1;entryDx=0;entryDy=0;exitX=0.5;exitY=0;exitDx=0;exitDy=0;" edge="1" parent="WIyWlLk6GJQsqaUBKTNV-1">
          <mxGeometry width="50" height="50" relative="1" as="geometry">
            <mxPoint x="402.16" y="240" as="sourcePoint" />
            <mxPoint x="402.16" y="180" as="targetPoint" />
          </mxGeometry>
        </mxCell>
        <mxCell id="jbT7SXT4_afKjvwqRheY-14" value="" style="endArrow=classic;html=1;entryX=0.5;entryY=1;entryDx=0;entryDy=0;exitX=0.5;exitY=0;exitDx=0;exitDy=0;" edge="1" parent="WIyWlLk6GJQsqaUBKTNV-1">
          <mxGeometry width="50" height="50" relative="1" as="geometry">
            <mxPoint x="680" y="240" as="sourcePoint" />
            <mxPoint x="680" y="180" as="targetPoint" />
          </mxGeometry>
        </mxCell>
        <mxCell id="jbT7SXT4_afKjvwqRheY-15" value="" style="endArrow=classic;html=1;exitX=0.5;exitY=1;exitDx=0;exitDy=0;" edge="1" parent="WIyWlLk6GJQsqaUBKTNV-1" source="jbT7SXT4_afKjvwqRheY-0">
          <mxGeometry width="50" height="50" relative="1" as="geometry">
            <mxPoint x="70" y="170" as="sourcePoint" />
            <mxPoint x="140" y="120" as="targetPoint" />
          </mxGeometry>
        </mxCell>
        <mxCell id="jbT7SXT4_afKjvwqRheY-16" value="" style="endArrow=classic;html=1;" edge="1" parent="WIyWlLk6GJQsqaUBKTNV-1">
          <mxGeometry width="50" height="50" relative="1" as="geometry">
            <mxPoint x="401" y="72" as="sourcePoint" />
            <mxPoint x="401" y="118" as="targetPoint" />
          </mxGeometry>
        </mxCell>
        <mxCell id="jbT7SXT4_afKjvwqRheY-17" value="" style="endArrow=classic;html=1;entryX=0.5;entryY=0;entryDx=0;entryDy=0;exitX=0.5;exitY=1;exitDx=0;exitDy=0;" edge="1" parent="WIyWlLk6GJQsqaUBKTNV-1" source="jbT7SXT4_afKjvwqRheY-0" target="jbT7SXT4_afKjvwqRheY-9">
          <mxGeometry width="50" height="50" relative="1" as="geometry">
            <mxPoint x="410" y="81" as="sourcePoint" />
            <mxPoint x="409.58000000000015" y="127.36000000000001" as="targetPoint" />
          </mxGeometry>
        </mxCell>
        <mxCell id="jbT7SXT4_afKjvwqRheY-19" value="" style="endArrow=classic;html=1;exitX=0.5;exitY=1;exitDx=0;exitDy=0;entryX=0.54;entryY=-0.017;entryDx=0;entryDy=0;entryPerimeter=0;" edge="1" parent="WIyWlLk6GJQsqaUBKTNV-1" target="jbT7SXT4_afKjvwqRheY-4">
          <mxGeometry width="50" height="50" relative="1" as="geometry">
            <mxPoint x="402.5" y="300" as="sourcePoint" />
            <mxPoint x="120" y="350" as="targetPoint" />
          </mxGeometry>
        </mxCell>
        <mxCell id="jbT7SXT4_afKjvwqRheY-20" value="" style="endArrow=classic;html=1;" edge="1" parent="WIyWlLk6GJQsqaUBKTNV-1" target="jbT7SXT4_afKjvwqRheY-10">
          <mxGeometry width="50" height="50" relative="1" as="geometry">
            <mxPoint x="401" y="300" as="sourcePoint" />
            <mxPoint x="128" y="368.98" as="targetPoint" />
          </mxGeometry>
        </mxCell>
        <mxCell id="jbT7SXT4_afKjvwqRheY-21" value="" style="endArrow=classic;html=1;exitX=0.5;exitY=1;exitDx=0;exitDy=0;" edge="1" parent="WIyWlLk6GJQsqaUBKTNV-1" source="jbT7SXT4_afKjvwqRheY-3">
          <mxGeometry width="50" height="50" relative="1" as="geometry">
            <mxPoint x="411" y="310" as="sourcePoint" />
            <mxPoint x="681" y="360" as="targetPoint" />
          </mxGeometry>
        </mxCell>
        <mxCell id="jbT7SXT4_afKjvwqRheY-22" value="notify" style="text;html=1;align=center;verticalAlign=middle;resizable=0;points=[];autosize=1;" vertex="1" parent="WIyWlLk6GJQsqaUBKTNV-1">
          <mxGeometry x="255" y="93" width="40" height="20" as="geometry" />
        </mxCell>
        <mxCell id="jbT7SXT4_afKjvwqRheY-24" value="notify" style="text;html=1;align=center;verticalAlign=middle;resizable=0;points=[];autosize=1;" vertex="1" parent="WIyWlLk6GJQsqaUBKTNV-1">
          <mxGeometry x="360" y="89" width="40" height="20" as="geometry" />
        </mxCell>
        <mxCell id="jbT7SXT4_afKjvwqRheY-25" value="notify" style="text;html=1;align=center;verticalAlign=middle;resizable=0;points=[];autosize=1;" vertex="1" parent="WIyWlLk6GJQsqaUBKTNV-1">
          <mxGeometry x="512" y="94" width="40" height="20" as="geometry" />
        </mxCell>
        <mxCell id="jbT7SXT4_afKjvwqRheY-26" value="" style="endArrow=classic;html=1;entryX=0.393;entryY=0.983;entryDx=0;entryDy=0;entryPerimeter=0;" edge="1" parent="WIyWlLk6GJQsqaUBKTNV-1" target="jbT7SXT4_afKjvwqRheY-0">
          <mxGeometry width="50" height="50" relative="1" as="geometry">
            <mxPoint x="80" y="120" as="sourcePoint" />
            <mxPoint x="130" y="70" as="targetPoint" />
          </mxGeometry>
        </mxCell>
        <mxCell id="jbT7SXT4_afKjvwqRheY-29" value="subscribe" style="text;html=1;align=center;verticalAlign=middle;resizable=0;points=[];autosize=1;" vertex="1" parent="WIyWlLk6GJQsqaUBKTNV-1">
          <mxGeometry x="125" y="78" width="70" height="20" as="geometry" />
        </mxCell>
        <mxCell id="jbT7SXT4_afKjvwqRheY-32" value="" style="endArrow=classic;html=1;exitX=0.546;exitY=0.017;exitDx=0;exitDy=0;exitPerimeter=0;" edge="1" parent="WIyWlLk6GJQsqaUBKTNV-1">
          <mxGeometry width="50" height="50" relative="1" as="geometry">
            <mxPoint x="408.93000000000006" y="119.01999999999998" as="sourcePoint" />
            <mxPoint x="408" y="68" as="targetPoint" />
          </mxGeometry>
        </mxCell>
        <mxCell id="jbT7SXT4_afKjvwqRheY-34" value="subscribe" style="text;html=1;align=center;verticalAlign=middle;resizable=0;points=[];autosize=1;" vertex="1" parent="WIyWlLk6GJQsqaUBKTNV-1">
          <mxGeometry x="409" y="88" width="70" height="20" as="geometry" />
        </mxCell>
        <mxCell id="jbT7SXT4_afKjvwqRheY-35" value="" style="endArrow=classic;html=1;entryX=0.647;entryY=1.017;entryDx=0;entryDy=0;entryPerimeter=0;exitX=0.75;exitY=0;exitDx=0;exitDy=0;" edge="1" parent="WIyWlLk6GJQsqaUBKTNV-1" source="jbT7SXT4_afKjvwqRheY-9" target="jbT7SXT4_afKjvwqRheY-0">
          <mxGeometry width="50" height="50" relative="1" as="geometry">
            <mxPoint x="90" y="130" as="sourcePoint" />
            <mxPoint x="356.1500000000001" y="78.98000000000002" as="targetPoint" />
          </mxGeometry>
        </mxCell>
        <mxCell id="jbT7SXT4_afKjvwqRheY-36" value="subscribe" style="text;html=1;align=center;verticalAlign=middle;resizable=0;points=[];autosize=1;" vertex="1" parent="WIyWlLk6GJQsqaUBKTNV-1">
          <mxGeometry x="610" y="74" width="70" height="20" as="geometry" />
        </mxCell>
        <mxCell id="jbT7SXT4_afKjvwqRheY-37" value="implement" style="text;html=1;align=center;verticalAlign=middle;resizable=0;points=[];autosize=1;" vertex="1" parent="WIyWlLk6GJQsqaUBKTNV-1">
          <mxGeometry x="120" y="200" width="70" height="20" as="geometry" />
        </mxCell>
        <mxCell id="jbT7SXT4_afKjvwqRheY-39" value="implement" style="text;html=1;align=center;verticalAlign=middle;resizable=0;points=[];autosize=1;" vertex="1" parent="WIyWlLk6GJQsqaUBKTNV-1">
          <mxGeometry x="690" y="200" width="70" height="20" as="geometry" />
        </mxCell>
        <mxCell id="jbT7SXT4_afKjvwqRheY-40" value="&amp;nbsp;enqueue" style="text;html=1;align=center;verticalAlign=middle;resizable=0;points=[];autosize=1;" vertex="1" parent="WIyWlLk6GJQsqaUBKTNV-1">
          <mxGeometry x="170" y="315" width="70" height="20" as="geometry" />
        </mxCell>
        <mxCell id="jbT7SXT4_afKjvwqRheY-41" value="&amp;nbsp;enqueue" style="text;html=1;align=center;verticalAlign=middle;resizable=0;points=[];autosize=1;" vertex="1" parent="WIyWlLk6GJQsqaUBKTNV-1">
          <mxGeometry x="334" y="314" width="70" height="20" as="geometry" />
        </mxCell>
        <mxCell id="jbT7SXT4_afKjvwqRheY-42" value="&amp;nbsp;enqueue" style="text;html=1;align=center;verticalAlign=middle;resizable=0;points=[];autosize=1;" vertex="1" parent="WIyWlLk6GJQsqaUBKTNV-1">
          <mxGeometry x="535" y="315" width="70" height="20" as="geometry" />
        </mxCell>
        <mxCell id="jbT7SXT4_afKjvwqRheY-43" value="implement" style="text;html=1;align=center;verticalAlign=middle;resizable=0;points=[];autosize=1;" vertex="1" parent="WIyWlLk6GJQsqaUBKTNV-1">
          <mxGeometry x="409" y="200" width="70" height="20" as="geometry" />
        </mxCell>
        <mxCell id="jbT7SXT4_afKjvwqRheY-47" value="IQueue" style="rounded=0;whiteSpace=wrap;html=1;" vertex="1" parent="WIyWlLk6GJQsqaUBKTNV-1">
          <mxGeometry x="302.5" y="480" width="195" height="60" as="geometry" />
        </mxCell>
        <mxCell id="jbT7SXT4_afKjvwqRheY-48" value="BasePcFlowProcessor&lt;br&gt;(implement EventListener)" style="rounded=0;whiteSpace=wrap;html=1;" vertex="1" parent="WIyWlLk6GJQsqaUBKTNV-1">
          <mxGeometry x="302.5" y="600" width="200" height="70" as="geometry" />
        </mxCell>
        <mxCell id="jbT7SXT4_afKjvwqRheY-49" value="" style="endArrow=classic;html=1;entryX=0.5;entryY=0;entryDx=0;entryDy=0;" edge="1" parent="WIyWlLk6GJQsqaUBKTNV-1" target="jbT7SXT4_afKjvwqRheY-47">
          <mxGeometry width="50" height="50" relative="1" as="geometry">
            <mxPoint x="401" y="420" as="sourcePoint" />
            <mxPoint x="400.33333333333326" y="480" as="targetPoint" />
          </mxGeometry>
        </mxCell>
        <mxCell id="jbT7SXT4_afKjvwqRheY-50" value="&amp;nbsp;enqueue" style="text;html=1;align=center;verticalAlign=middle;resizable=0;points=[];autosize=1;" vertex="1" parent="WIyWlLk6GJQsqaUBKTNV-1">
          <mxGeometry x="330" y="440" width="70" height="20" as="geometry" />
        </mxCell>
        <mxCell id="jbT7SXT4_afKjvwqRheY-52" value="" style="endArrow=classic;html=1;entryX=0.5;entryY=1;entryDx=0;entryDy=0;" edge="1" parent="WIyWlLk6GJQsqaUBKTNV-1" target="jbT7SXT4_afKjvwqRheY-47">
          <mxGeometry width="50" height="50" relative="1" as="geometry">
            <mxPoint x="401" y="600" as="sourcePoint" />
            <mxPoint x="400" y="660" as="targetPoint" />
          </mxGeometry>
        </mxCell>
        <mxCell id="jbT7SXT4_afKjvwqRheY-53" value="dequeue" style="text;html=1;align=center;verticalAlign=middle;resizable=0;points=[];autosize=1;" vertex="1" parent="WIyWlLk6GJQsqaUBKTNV-1">
          <mxGeometry x="335" y="564.5" width="60" height="20" as="geometry" />
        </mxCell>
      </root>
    </mxGraphModel>
  </diagram>
</mxfile>
